<mxfile host="app.diagrams.net" agent="Mozilla/5.0 (Windows NT 10.0; Win64; x64) AppleWebKit/537.36 (KHTML, like Gecko) Chrome/131.0.0.0 Safari/537.36" version="25.0.3">
  <diagram id="C5RBs43oDa-KdzZeNtuy" name="Page-1">
    <mxGraphModel dx="1194" dy="652" grid="1" gridSize="10" guides="1" tooltips="1" connect="1" arrows="1" fold="1" page="1" pageScale="1" pageWidth="827" pageHeight="1169" math="0" shadow="0">
      <root>
        <mxCell id="WIyWlLk6GJQsqaUBKTNV-0" />
        <mxCell id="WIyWlLk6GJQsqaUBKTNV-1" parent="WIyWlLk6GJQsqaUBKTNV-0" />
        <mxCell id="w5PQwurPr95JqtyABPxh-5" value="" style="edgeStyle=orthogonalEdgeStyle;rounded=0;orthogonalLoop=1;jettySize=auto;html=1;" edge="1" parent="WIyWlLk6GJQsqaUBKTNV-1" source="WIyWlLk6GJQsqaUBKTNV-3" target="WIyWlLk6GJQsqaUBKTNV-7">
          <mxGeometry relative="1" as="geometry" />
        </mxCell>
        <mxCell id="WIyWlLk6GJQsqaUBKTNV-3" value="Sign Up" style="rounded=1;whiteSpace=wrap;html=1;fontSize=12;glass=0;strokeWidth=1;shadow=0;" parent="WIyWlLk6GJQsqaUBKTNV-1" vertex="1">
          <mxGeometry x="40" y="160" width="120" height="40" as="geometry" />
        </mxCell>
        <mxCell id="w5PQwurPr95JqtyABPxh-4" value="" style="edgeStyle=orthogonalEdgeStyle;rounded=0;orthogonalLoop=1;jettySize=auto;html=1;" edge="1" parent="WIyWlLk6GJQsqaUBKTNV-1" source="WIyWlLk6GJQsqaUBKTNV-7" target="w5PQwurPr95JqtyABPxh-3">
          <mxGeometry relative="1" as="geometry" />
        </mxCell>
        <mxCell id="WIyWlLk6GJQsqaUBKTNV-7" value="Login" style="rounded=1;whiteSpace=wrap;html=1;fontSize=12;glass=0;strokeWidth=1;shadow=0;" parent="WIyWlLk6GJQsqaUBKTNV-1" vertex="1">
          <mxGeometry x="240" y="160" width="120" height="40" as="geometry" />
        </mxCell>
        <mxCell id="w5PQwurPr95JqtyABPxh-0" value="&lt;b&gt;&lt;font style=&quot;font-size: 18px;&quot;&gt;&lt;u&gt;PC Registration&lt;/u&gt;&lt;/font&gt;&lt;/b&gt;" style="text;html=1;align=center;verticalAlign=middle;whiteSpace=wrap;rounded=0;" vertex="1" parent="WIyWlLk6GJQsqaUBKTNV-1">
          <mxGeometry x="320" y="40" width="150" height="30" as="geometry" />
        </mxCell>
        <mxCell id="w5PQwurPr95JqtyABPxh-2" value="&lt;b&gt;&lt;font style=&quot;font-size: 14px;&quot;&gt;I,&lt;/font&gt;&lt;/b&gt;" style="text;html=1;align=center;verticalAlign=middle;resizable=0;points=[];autosize=1;strokeColor=none;fillColor=none;" vertex="1" parent="WIyWlLk6GJQsqaUBKTNV-1">
          <mxGeometry x="40" y="88" width="30" height="30" as="geometry" />
        </mxCell>
        <mxCell id="w5PQwurPr95JqtyABPxh-9" value="" style="edgeStyle=orthogonalEdgeStyle;rounded=0;orthogonalLoop=1;jettySize=auto;html=1;" edge="1" parent="WIyWlLk6GJQsqaUBKTNV-1" source="w5PQwurPr95JqtyABPxh-3" target="w5PQwurPr95JqtyABPxh-8">
          <mxGeometry relative="1" as="geometry" />
        </mxCell>
        <mxCell id="w5PQwurPr95JqtyABPxh-3" value="PC&lt;br&gt;Dashboard" style="rounded=1;whiteSpace=wrap;html=1;fontSize=12;glass=0;strokeWidth=1;shadow=0;" vertex="1" parent="WIyWlLk6GJQsqaUBKTNV-1">
          <mxGeometry x="440" y="160" width="120" height="40" as="geometry" />
        </mxCell>
        <mxCell id="w5PQwurPr95JqtyABPxh-6" value="-&lt;span style=&quot;background-color: initial;&quot;&gt;Register Members&lt;/span&gt;" style="text;html=1;align=center;verticalAlign=middle;resizable=0;points=[];autosize=1;strokeColor=none;fillColor=none;" vertex="1" parent="WIyWlLk6GJQsqaUBKTNV-1">
          <mxGeometry x="440" y="208" width="130" height="30" as="geometry" />
        </mxCell>
        <mxCell id="w5PQwurPr95JqtyABPxh-7" value="-&lt;span style=&quot;background-color: initial;&quot;&gt;Fulfill Everything..&lt;/span&gt;" style="text;html=1;align=center;verticalAlign=middle;resizable=0;points=[];autosize=1;strokeColor=none;fillColor=none;" vertex="1" parent="WIyWlLk6GJQsqaUBKTNV-1">
          <mxGeometry x="445" y="250" width="120" height="30" as="geometry" />
        </mxCell>
        <mxCell id="w5PQwurPr95JqtyABPxh-11" value="" style="edgeStyle=orthogonalEdgeStyle;rounded=0;orthogonalLoop=1;jettySize=auto;html=1;" edge="1" parent="WIyWlLk6GJQsqaUBKTNV-1" source="w5PQwurPr95JqtyABPxh-8" target="w5PQwurPr95JqtyABPxh-10">
          <mxGeometry relative="1" as="geometry" />
        </mxCell>
        <mxCell id="w5PQwurPr95JqtyABPxh-8" value="Comissionar&lt;br&gt;Dashboard" style="rounded=1;whiteSpace=wrap;html=1;fontSize=12;glass=0;strokeWidth=1;shadow=0;" vertex="1" parent="WIyWlLk6GJQsqaUBKTNV-1">
          <mxGeometry x="640" y="160" width="120" height="40" as="geometry" />
        </mxCell>
        <mxCell id="w5PQwurPr95JqtyABPxh-12" value="" style="edgeStyle=orthogonalEdgeStyle;rounded=0;orthogonalLoop=1;jettySize=auto;html=1;entryX=1;entryY=0.75;entryDx=0;entryDy=0;exitX=0;exitY=0.5;exitDx=0;exitDy=0;" edge="1" parent="WIyWlLk6GJQsqaUBKTNV-1" source="w5PQwurPr95JqtyABPxh-10" target="w5PQwurPr95JqtyABPxh-3">
          <mxGeometry relative="1" as="geometry">
            <mxPoint x="685" y="325" as="sourcePoint" />
            <mxPoint x="570" y="205" as="targetPoint" />
            <Array as="points">
              <mxPoint x="610" y="300" />
              <mxPoint x="610" y="190" />
            </Array>
          </mxGeometry>
        </mxCell>
        <mxCell id="w5PQwurPr95JqtyABPxh-17" value="" style="edgeStyle=orthogonalEdgeStyle;rounded=0;orthogonalLoop=1;jettySize=auto;html=1;" edge="1" parent="WIyWlLk6GJQsqaUBKTNV-1" source="w5PQwurPr95JqtyABPxh-10">
          <mxGeometry relative="1" as="geometry">
            <mxPoint x="700" y="400" as="targetPoint" />
          </mxGeometry>
        </mxCell>
        <mxCell id="w5PQwurPr95JqtyABPxh-10" value="" style="rhombus;whiteSpace=wrap;html=1;rounded=1;glass=0;strokeWidth=1;shadow=0;" vertex="1" parent="WIyWlLk6GJQsqaUBKTNV-1">
          <mxGeometry x="660" y="260" width="80" height="80" as="geometry" />
        </mxCell>
        <mxCell id="w5PQwurPr95JqtyABPxh-15" value="Rejected" style="text;html=1;align=center;verticalAlign=middle;resizable=0;points=[];autosize=1;strokeColor=none;fillColor=none;" vertex="1" parent="WIyWlLk6GJQsqaUBKTNV-1">
          <mxGeometry x="585" y="238" width="70" height="30" as="geometry" />
        </mxCell>
        <mxCell id="w5PQwurPr95JqtyABPxh-33" value="" style="edgeStyle=orthogonalEdgeStyle;rounded=0;orthogonalLoop=1;jettySize=auto;html=1;" edge="1" parent="WIyWlLk6GJQsqaUBKTNV-1" target="w5PQwurPr95JqtyABPxh-32">
          <mxGeometry relative="1" as="geometry">
            <mxPoint x="700" y="460" as="sourcePoint" />
          </mxGeometry>
        </mxCell>
        <mxCell id="w5PQwurPr95JqtyABPxh-18" value="Approved" style="text;html=1;align=center;verticalAlign=middle;resizable=0;points=[];autosize=1;strokeColor=none;fillColor=none;" vertex="1" parent="WIyWlLk6GJQsqaUBKTNV-1">
          <mxGeometry x="675" y="348" width="70" height="30" as="geometry" />
        </mxCell>
        <mxCell id="w5PQwurPr95JqtyABPxh-19" value="II," style="text;html=1;align=center;verticalAlign=middle;resizable=0;points=[];autosize=1;strokeColor=none;fillColor=none;" vertex="1" parent="WIyWlLk6GJQsqaUBKTNV-1">
          <mxGeometry x="40" y="490" width="30" height="30" as="geometry" />
        </mxCell>
        <mxCell id="w5PQwurPr95JqtyABPxh-24" value="" style="edgeStyle=orthogonalEdgeStyle;rounded=0;orthogonalLoop=1;jettySize=auto;html=1;" edge="1" parent="WIyWlLk6GJQsqaUBKTNV-1" source="w5PQwurPr95JqtyABPxh-20">
          <mxGeometry relative="1" as="geometry">
            <mxPoint x="240" y="620" as="targetPoint" />
          </mxGeometry>
        </mxCell>
        <mxCell id="w5PQwurPr95JqtyABPxh-20" value="Comissionar&lt;br&gt;Dashboard" style="rounded=1;whiteSpace=wrap;html=1;fontSize=12;glass=0;strokeWidth=1;shadow=0;" vertex="1" parent="WIyWlLk6GJQsqaUBKTNV-1">
          <mxGeometry x="40" y="600" width="120" height="40" as="geometry" />
        </mxCell>
        <mxCell id="w5PQwurPr95JqtyABPxh-21" value="-&lt;span style=&quot;background-color: initial;&quot;&gt;Register PC&lt;/span&gt;" style="text;html=1;align=center;verticalAlign=middle;resizable=0;points=[];autosize=1;strokeColor=none;fillColor=none;" vertex="1" parent="WIyWlLk6GJQsqaUBKTNV-1">
          <mxGeometry x="60" y="650" width="90" height="30" as="geometry" />
        </mxCell>
        <mxCell id="w5PQwurPr95JqtyABPxh-30" value="" style="edgeStyle=orthogonalEdgeStyle;rounded=0;orthogonalLoop=1;jettySize=auto;html=1;" edge="1" parent="WIyWlLk6GJQsqaUBKTNV-1" source="w5PQwurPr95JqtyABPxh-26" target="w5PQwurPr95JqtyABPxh-29">
          <mxGeometry relative="1" as="geometry" />
        </mxCell>
        <mxCell id="w5PQwurPr95JqtyABPxh-26" value="PC&lt;br&gt;Dashboard" style="rounded=1;whiteSpace=wrap;html=1;fontSize=12;glass=0;strokeWidth=1;shadow=0;" vertex="1" parent="WIyWlLk6GJQsqaUBKTNV-1">
          <mxGeometry x="240" y="600" width="120" height="40" as="geometry" />
        </mxCell>
        <mxCell id="w5PQwurPr95JqtyABPxh-27" value="-&lt;span style=&quot;background-color: initial;&quot;&gt;Fulfill All Requirements&lt;/span&gt;" style="text;html=1;align=center;verticalAlign=middle;resizable=0;points=[];autosize=1;strokeColor=none;fillColor=none;" vertex="1" parent="WIyWlLk6GJQsqaUBKTNV-1">
          <mxGeometry x="240" y="690" width="150" height="30" as="geometry" />
        </mxCell>
        <mxCell id="w5PQwurPr95JqtyABPxh-28" value="-&lt;span style=&quot;background-color: initial;&quot;&gt;Register Members&lt;/span&gt;" style="text;html=1;align=center;verticalAlign=middle;resizable=0;points=[];autosize=1;strokeColor=none;fillColor=none;" vertex="1" parent="WIyWlLk6GJQsqaUBKTNV-1">
          <mxGeometry x="240" y="650" width="130" height="30" as="geometry" />
        </mxCell>
        <mxCell id="w5PQwurPr95JqtyABPxh-35" value="" style="edgeStyle=orthogonalEdgeStyle;rounded=0;orthogonalLoop=1;jettySize=auto;html=1;" edge="1" parent="WIyWlLk6GJQsqaUBKTNV-1" source="w5PQwurPr95JqtyABPxh-29" target="w5PQwurPr95JqtyABPxh-34">
          <mxGeometry relative="1" as="geometry" />
        </mxCell>
        <mxCell id="w5PQwurPr95JqtyABPxh-29" value="Comissionar&lt;br&gt;Dashboard" style="rounded=1;whiteSpace=wrap;html=1;fontSize=12;glass=0;strokeWidth=1;shadow=0;" vertex="1" parent="WIyWlLk6GJQsqaUBKTNV-1">
          <mxGeometry x="440" y="600" width="120" height="40" as="geometry" />
        </mxCell>
        <mxCell id="w5PQwurPr95JqtyABPxh-31" value="-&lt;span style=&quot;background-color: initial;&quot;&gt;Approve/Reject&lt;/span&gt;&lt;div&gt;&lt;span style=&quot;background-color: initial;&quot;&gt;PC&lt;/span&gt;&lt;/div&gt;" style="text;html=1;align=center;verticalAlign=middle;resizable=0;points=[];autosize=1;strokeColor=none;fillColor=none;" vertex="1" parent="WIyWlLk6GJQsqaUBKTNV-1">
          <mxGeometry x="450" y="645" width="110" height="40" as="geometry" />
        </mxCell>
        <mxCell id="w5PQwurPr95JqtyABPxh-32" value="Approved" style="ellipse;whiteSpace=wrap;html=1;rounded=1;glass=0;strokeWidth=1;shadow=0;" vertex="1" parent="WIyWlLk6GJQsqaUBKTNV-1">
          <mxGeometry x="665" y="400" width="80" height="80" as="geometry" />
        </mxCell>
        <mxCell id="w5PQwurPr95JqtyABPxh-34" value="Approved" style="ellipse;whiteSpace=wrap;html=1;rounded=1;glass=0;strokeWidth=1;shadow=0;" vertex="1" parent="WIyWlLk6GJQsqaUBKTNV-1">
          <mxGeometry x="640" y="590" width="60" height="60" as="geometry" />
        </mxCell>
        <mxCell id="w5PQwurPr95JqtyABPxh-36" value="Approved" style="text;html=1;align=center;verticalAlign=middle;resizable=0;points=[];autosize=1;strokeColor=none;fillColor=none;" vertex="1" parent="WIyWlLk6GJQsqaUBKTNV-1">
          <mxGeometry x="565" y="590" width="70" height="30" as="geometry" />
        </mxCell>
        <mxCell id="w5PQwurPr95JqtyABPxh-37" value="&lt;b&gt;&lt;font style=&quot;font-size: 18px;&quot;&gt;&lt;u&gt;Union Registration&lt;/u&gt;&lt;/font&gt;&lt;/b&gt;" style="text;html=1;align=center;verticalAlign=middle;whiteSpace=wrap;rounded=0;" vertex="1" parent="WIyWlLk6GJQsqaUBKTNV-1">
          <mxGeometry x="320" y="770" width="190" height="30" as="geometry" />
        </mxCell>
        <mxCell id="w5PQwurPr95JqtyABPxh-42" value="" style="edgeStyle=orthogonalEdgeStyle;rounded=0;orthogonalLoop=1;jettySize=auto;html=1;" edge="1" parent="WIyWlLk6GJQsqaUBKTNV-1" source="w5PQwurPr95JqtyABPxh-38" target="w5PQwurPr95JqtyABPxh-41">
          <mxGeometry relative="1" as="geometry" />
        </mxCell>
        <mxCell id="w5PQwurPr95JqtyABPxh-38" value="PC&lt;br&gt;Dashboard" style="rounded=1;whiteSpace=wrap;html=1;fontSize=12;glass=0;strokeWidth=1;shadow=0;" vertex="1" parent="WIyWlLk6GJQsqaUBKTNV-1">
          <mxGeometry x="40" y="860" width="120" height="40" as="geometry" />
        </mxCell>
        <mxCell id="w5PQwurPr95JqtyABPxh-39" value="-&lt;span style=&quot;background-color: initial;&quot;&gt;Get Accepted by All PCs&lt;/span&gt;" style="text;html=1;align=center;verticalAlign=middle;resizable=0;points=[];autosize=1;strokeColor=none;fillColor=none;" vertex="1" parent="WIyWlLk6GJQsqaUBKTNV-1">
          <mxGeometry x="40" y="970" width="160" height="30" as="geometry" />
        </mxCell>
        <mxCell id="w5PQwurPr95JqtyABPxh-40" value="-&lt;span style=&quot;background-color: initial;&quot;&gt;Choose Union Members&lt;/span&gt;" style="text;html=1;align=center;verticalAlign=middle;resizable=0;points=[];autosize=1;strokeColor=none;fillColor=none;" vertex="1" parent="WIyWlLk6GJQsqaUBKTNV-1">
          <mxGeometry x="40" y="930" width="160" height="30" as="geometry" />
        </mxCell>
        <mxCell id="w5PQwurPr95JqtyABPxh-46" style="edgeStyle=orthogonalEdgeStyle;rounded=0;orthogonalLoop=1;jettySize=auto;html=1;entryX=0;entryY=0.5;entryDx=0;entryDy=0;" edge="1" parent="WIyWlLk6GJQsqaUBKTNV-1" source="w5PQwurPr95JqtyABPxh-41" target="w5PQwurPr95JqtyABPxh-45">
          <mxGeometry relative="1" as="geometry" />
        </mxCell>
        <mxCell id="w5PQwurPr95JqtyABPxh-41" value="Comissionar&lt;br&gt;Dashboard" style="whiteSpace=wrap;html=1;rounded=1;glass=0;strokeWidth=1;shadow=0;" vertex="1" parent="WIyWlLk6GJQsqaUBKTNV-1">
          <mxGeometry x="280" y="860" width="120" height="40" as="geometry" />
        </mxCell>
        <mxCell id="w5PQwurPr95JqtyABPxh-43" value="Send Request" style="text;html=1;align=center;verticalAlign=middle;resizable=0;points=[];autosize=1;strokeColor=none;fillColor=none;" vertex="1" parent="WIyWlLk6GJQsqaUBKTNV-1">
          <mxGeometry x="160" y="860" width="100" height="30" as="geometry" />
        </mxCell>
        <mxCell id="w5PQwurPr95JqtyABPxh-44" value="-Approve/Reject" style="text;whiteSpace=wrap;html=1;" vertex="1" parent="WIyWlLk6GJQsqaUBKTNV-1">
          <mxGeometry x="280" y="930" width="120" height="30" as="geometry" />
        </mxCell>
        <mxCell id="w5PQwurPr95JqtyABPxh-45" value="Union&lt;br&gt;Dashboard" style="rounded=1;whiteSpace=wrap;html=1;fontSize=12;glass=0;strokeWidth=1;shadow=0;" vertex="1" parent="WIyWlLk6GJQsqaUBKTNV-1">
          <mxGeometry x="520" y="860" width="120" height="40" as="geometry" />
        </mxCell>
      </root>
    </mxGraphModel>
  </diagram>
</mxfile>
